<?xml version="1.0" encoding="UTF-8" standalone="no"?>
<!DOCTYPE svg PUBLIC "-//W3C//DTD SVG 1.0//EN"
 "http://www.w3.org/TR/2001/REC-SVG-20010904/DTD/svg10.dtd" [
 <!ATTLIST svg xmlns:xlink CDATA #FIXED "http://www.w3.org/1999/xlink">
]>
<!-- Generated by Graphviz version 2.20.3 (Sun Nov &#160;9 07:34:46 UTC 2008)
     For user: (matt)  -->
<!-- Title: controllers_diagram Pages: 1 -->
<svg width="972pt" height="1017pt"
 viewBox="0.00 0.00 972.00 1017.00" xmlns="http://www.w3.org/2000/svg" xmlns:xlink="http://www.w3.org/1999/xlink">
<g id="graph0" class="graph" transform="scale(1 1) rotate(0) translate(4 1013)">
<title>controllers_diagram</title>
<polygon style="fill:white;stroke:white;" points="-4,4 -4,-1013 968,-1013 968,4 -4,4"/>
<!-- _diagram_info -->
<g id="node1" class="node"><title>_diagram_info</title>
<text text-anchor="start" x="756.5" y="-264.4" style="font-family:Times New Roman;font-size:11px;">Controllers diagram</text>
<text text-anchor="start" x="756.5" y="-247.4" style="font-family:Times New Roman;font-size:11px;">Date: Mar 24 2009 &#45; 18:59</text>
<text text-anchor="start" x="756.5" y="-230.4" style="font-family:Times New Roman;font-size:11px;">Migration version: 20090320214610</text>
<text text-anchor="start" x="756.5" y="-213.4" style="font-family:Times New Roman;font-size:11px;">Generated by RailRoad 0.7.6</text>
</g>
<!-- ApplicationController -->
<g id="node2" class="node"><title>ApplicationController</title>
<polyline style="fill:none;stroke:black;" points="304,-303 421,-303 "/>
<path style="fill:none;stroke:black;" d="M421,-303C427,-303 433,-309 433,-315"/>
<polyline style="fill:none;stroke:black;" points="433,-315 433,-457 "/>
<path style="fill:none;stroke:black;" d="M433,-457C433,-463 427,-469 421,-469"/>
<polyline style="fill:none;stroke:black;" points="421,-469 304,-469 "/>
<path style="fill:none;stroke:black;" d="M304,-469C298,-469 292,-463 292,-457"/>
<polyline style="fill:none;stroke:black;" points="292,-457 292,-315 "/>
<path style="fill:none;stroke:black;" d="M292,-315C292,-309 298,-303 304,-303"/>
<text text-anchor="middle" x="362" y="-451.9" style="font-family:Times New Roman;font-size:11px;">ApplicationController</text>
<polyline style="fill:none;stroke:black;" points="292,-444 433,-444 "/>
<polyline style="fill:none;stroke:black;" points="292,-420 433,-420 "/>
<text text-anchor="start" x="299.5" y="-402.9" style="font-family:Times New Roman;font-size:11px;">authorize</text>
<text text-anchor="start" x="299.5" y="-385.9" style="font-family:Times New Roman;font-size:11px;">check_for_admin</text>
<text text-anchor="start" x="299.5" y="-368.9" style="font-family:Times New Roman;font-size:11px;">filter_parameters</text>
<text text-anchor="start" x="299.5" y="-351.9" style="font-family:Times New Roman;font-size:11px;">login_from_cookie</text>
<text text-anchor="start" x="299.5" y="-334.9" style="font-family:Times New Roman;font-size:11px;">login_with_credentials</text>
<polyline style="fill:none;stroke:black;" points="292,-327 433,-327 "/>
</g>
<!-- ArticlesController -->
<g id="node3" class="node"><title>ArticlesController</title>
<polyline style="fill:none;stroke:black;" points="350,-542 441,-542 "/>
<path style="fill:none;stroke:black;" d="M441,-542C447,-542 453,-548 453,-554"/>
<polyline style="fill:none;stroke:black;" points="453,-554 453,-645 "/>
<path style="fill:none;stroke:black;" d="M453,-645C453,-651 447,-657 441,-657"/>
<polyline style="fill:none;stroke:black;" points="441,-657 350,-657 "/>
<path style="fill:none;stroke:black;" d="M350,-657C344,-657 338,-651 338,-645"/>
<polyline style="fill:none;stroke:black;" points="338,-645 338,-554 "/>
<path style="fill:none;stroke:black;" d="M338,-554C338,-548 344,-542 350,-542"/>
<text text-anchor="middle" x="395" y="-639.9" style="font-family:Times New Roman;font-size:11px;">ArticlesController</text>
<polyline style="fill:none;stroke:black;" points="338,-632 453,-632 "/>
<text text-anchor="start" x="345.5" y="-615.4" style="font-family:Times New Roman;font-size:11px;">index</text>
<text text-anchor="start" x="345.5" y="-598.4" style="font-family:Times New Roman;font-size:11px;">show</text>
<polyline style="fill:none;stroke:black;" points="338,-590 453,-590 "/>
<polyline style="fill:none;stroke:black;" points="338,-566 453,-566 "/>
</g>
<!-- ApplicationController&#45;&gt;ArticlesController -->
<g id="edge2" class="edge"><title>ApplicationController&#45;&gt;ArticlesController</title>
<path style="fill:none;stroke:black;" d="M377,-479C380,-500 383,-522 386,-542"/>
<polygon style="fill:none;stroke:black;" points="380.393,-478.119 375,-469 373.529,-479.492 380.393,-478.119"/>
</g>
<!-- ContactController -->
<g id="node4" class="node"><title>ContactController</title>
<polyline style="fill:none;stroke:black;" points="247,-43 340,-43 "/>
<path style="fill:none;stroke:black;" d="M340,-43C346,-43 352,-49 352,-55"/>
<polyline style="fill:none;stroke:black;" points="352,-55 352,-146 "/>
<path style="fill:none;stroke:black;" d="M352,-146C352,-152 346,-158 340,-158"/>
<polyline style="fill:none;stroke:black;" points="340,-158 247,-158 "/>
<path style="fill:none;stroke:black;" d="M247,-158C241,-158 235,-152 235,-146"/>
<polyline style="fill:none;stroke:black;" points="235,-146 235,-55 "/>
<path style="fill:none;stroke:black;" d="M235,-55C235,-49 241,-43 247,-43"/>
<text text-anchor="middle" x="293" y="-140.9" style="font-family:Times New Roman;font-size:11px;">ContactController</text>
<polyline style="fill:none;stroke:black;" points="235,-133 352,-133 "/>
<text text-anchor="start" x="242.5" y="-116.4" style="font-family:Times New Roman;font-size:11px;">index</text>
<text text-anchor="start" x="242.5" y="-99.4" style="font-family:Times New Roman;font-size:11px;">send_email</text>
<polyline style="fill:none;stroke:black;" points="235,-91 352,-91 "/>
<polyline style="fill:none;stroke:black;" points="235,-67 352,-67 "/>
</g>
<!-- ApplicationController&#45;&gt;ContactController -->
<g id="edge4" class="edge"><title>ApplicationController&#45;&gt;ContactController</title>
<path style="fill:none;stroke:black;" d="M339,-293C328,-249 316,-197 307,-158"/>
<polygon style="fill:none;stroke:black;" points="335.774,-294.427 342,-303 342.479,-292.416 335.774,-294.427"/>
</g>
<!-- AboutController -->
<g id="node5" class="node"><title>AboutController</title>
<polyline style="fill:none;stroke:black;" points="56,-828 140,-828 "/>
<path style="fill:none;stroke:black;" d="M140,-828C146,-828 152,-834 152,-840"/>
<polyline style="fill:none;stroke:black;" points="152,-840 152,-914 "/>
<path style="fill:none;stroke:black;" d="M152,-914C152,-920 146,-926 140,-926"/>
<polyline style="fill:none;stroke:black;" points="140,-926 56,-926 "/>
<path style="fill:none;stroke:black;" d="M56,-926C50,-926 44,-920 44,-914"/>
<polyline style="fill:none;stroke:black;" points="44,-914 44,-840 "/>
<path style="fill:none;stroke:black;" d="M44,-840C44,-834 50,-828 56,-828"/>
<text text-anchor="middle" x="98" y="-908.9" style="font-family:Times New Roman;font-size:11px;">AboutController</text>
<polyline style="fill:none;stroke:black;" points="44,-901 152,-901 "/>
<text text-anchor="start" x="52" y="-883.9" style="font-family:Times New Roman;font-size:11px;">index</text>
<polyline style="fill:none;stroke:black;" points="44,-876 152,-876 "/>
<polyline style="fill:none;stroke:black;" points="44,-852 152,-852 "/>
</g>
<!-- ApplicationController&#45;&gt;AboutController -->
<g id="edge6" class="edge"><title>ApplicationController&#45;&gt;AboutController</title>
<path style="fill:none;stroke:black;" d="M327,-479C299,-548 258,-644 212,-722 190,-759 162,-798 138,-828"/>
<polygon style="fill:none;stroke:black;" points="330.536,-479.585 331,-469 324.036,-476.985 330.536,-479.585"/>
</g>
<!-- Admin::ArticlesController -->
<g id="node6" class="node"><title>Admin::ArticlesController</title>
<polyline style="fill:none;stroke:black;" points="305,-719 440,-719 "/>
<path style="fill:none;stroke:black;" d="M440,-719C446,-719 452,-725 452,-731"/>
<polyline style="fill:none;stroke:black;" points="452,-731 452,-992 "/>
<path style="fill:none;stroke:black;" d="M452,-992C452,-998 446,-1004 440,-1004"/>
<polyline style="fill:none;stroke:black;" points="440,-1004 305,-1004 "/>
<path style="fill:none;stroke:black;" d="M305,-1004C299,-1004 293,-998 293,-992"/>
<polyline style="fill:none;stroke:black;" points="293,-992 293,-731 "/>
<path style="fill:none;stroke:black;" d="M293,-731C293,-725 299,-719 305,-719"/>
<text text-anchor="middle" x="372" y="-986.9" style="font-family:Times New Roman;font-size:11px;">Admin::ArticlesController</text>
<polyline style="fill:none;stroke:black;" points="293,-979 452,-979 "/>
<text text-anchor="start" x="300.5" y="-962.4" style="font-family:Times New Roman;font-size:11px;">bulk_action</text>
<text text-anchor="start" x="300.5" y="-945.4" style="font-family:Times New Roman;font-size:11px;">change_revision</text>
<text text-anchor="start" x="300.5" y="-928.4" style="font-family:Times New Roman;font-size:11px;">create</text>
<text text-anchor="start" x="300.5" y="-911.4" style="font-family:Times New Roman;font-size:11px;">destroy</text>
<text text-anchor="start" x="300.5" y="-894.4" style="font-family:Times New Roman;font-size:11px;">diff</text>
<text text-anchor="start" x="300.5" y="-877.4" style="font-family:Times New Roman;font-size:11px;">edit</text>
<text text-anchor="start" x="300.5" y="-860.4" style="font-family:Times New Roman;font-size:11px;">feature</text>
<text text-anchor="start" x="300.5" y="-843.4" style="font-family:Times New Roman;font-size:11px;">index</text>
<text text-anchor="start" x="300.5" y="-826.4" style="font-family:Times New Roman;font-size:11px;">new</text>
<text text-anchor="start" x="300.5" y="-809.4" style="font-family:Times New Roman;font-size:11px;">preview</text>
<text text-anchor="start" x="300.5" y="-792.4" style="font-family:Times New Roman;font-size:11px;">show</text>
<text text-anchor="start" x="300.5" y="-775.4" style="font-family:Times New Roman;font-size:11px;">update</text>
<polyline style="fill:none;stroke:black;" points="293,-767 452,-767 "/>
<polyline style="fill:none;stroke:black;" points="293,-743 452,-743 "/>
</g>
<!-- ApplicationController&#45;&gt;Admin::ArticlesController -->
<g id="edge8" class="edge"><title>ApplicationController&#45;&gt;Admin::ArticlesController</title>
<path style="fill:none;stroke:black;" d="M343,-479C340,-499 337,-519 335,-539 330,-593 330,-606 335,-660 337,-679 339,-699 342,-719"/>
<polygon style="fill:none;stroke:black;" points="346.471,-479.492 345,-469 339.607,-478.119 346.471,-479.492"/>
</g>
<!-- Admin::AboutController -->
<g id="node7" class="node"><title>Admin::AboutController</title>
<polyline style="fill:none;stroke:black;" points="70,-604 197,-604 "/>
<path style="fill:none;stroke:black;" d="M197,-604C203,-604 209,-610 209,-616"/>
<polyline style="fill:none;stroke:black;" points="209,-616 209,-707 "/>
<path style="fill:none;stroke:black;" d="M209,-707C209,-713 203,-719 197,-719"/>
<polyline style="fill:none;stroke:black;" points="197,-719 70,-719 "/>
<path style="fill:none;stroke:black;" d="M70,-719C64,-719 58,-713 58,-707"/>
<polyline style="fill:none;stroke:black;" points="58,-707 58,-616 "/>
<path style="fill:none;stroke:black;" d="M58,-616C58,-610 64,-604 70,-604"/>
<text text-anchor="middle" x="133" y="-701.9" style="font-family:Times New Roman;font-size:11px;">Admin::AboutController</text>
<polyline style="fill:none;stroke:black;" points="58,-694 209,-694 "/>
<text text-anchor="start" x="65.5" y="-677.4" style="font-family:Times New Roman;font-size:11px;">index</text>
<text text-anchor="start" x="65.5" y="-660.4" style="font-family:Times New Roman;font-size:11px;">update</text>
<polyline style="fill:none;stroke:black;" points="58,-652 209,-652 "/>
<polyline style="fill:none;stroke:black;" points="58,-628 209,-628 "/>
</g>
<!-- ApplicationController&#45;&gt;Admin::AboutController -->
<g id="edge10" class="edge"><title>ApplicationController&#45;&gt;Admin::AboutController</title>
<path style="fill:none;stroke:black;" d="M286,-477C252,-518 212,-567 181,-604"/>
<polygon style="fill:none;stroke:black;" points="289.049,-478.831 293,-469 283.781,-474.221 289.049,-478.831"/>
</g>
<!-- Admin::EventsController -->
<g id="node8" class="node"><title>Admin::EventsController</title>
<polyline style="fill:none;stroke:black;" points="42,-214 171,-214 "/>
<path style="fill:none;stroke:black;" d="M171,-214C177,-214 183,-220 183,-226"/>
<polyline style="fill:none;stroke:black;" points="183,-226 183,-419 "/>
<path style="fill:none;stroke:black;" d="M183,-419C183,-425 177,-431 171,-431"/>
<polyline style="fill:none;stroke:black;" points="171,-431 42,-431 "/>
<path style="fill:none;stroke:black;" d="M42,-431C36,-431 30,-425 30,-419"/>
<polyline style="fill:none;stroke:black;" points="30,-419 30,-226 "/>
<path style="fill:none;stroke:black;" d="M30,-226C30,-220 36,-214 42,-214"/>
<text text-anchor="middle" x="106" y="-413.9" style="font-family:Times New Roman;font-size:11px;">Admin::EventsController</text>
<polyline style="fill:none;stroke:black;" points="30,-406 183,-406 "/>
<text text-anchor="start" x="37.5" y="-389.4" style="font-family:Times New Roman;font-size:11px;">create</text>
<text text-anchor="start" x="37.5" y="-372.4" style="font-family:Times New Roman;font-size:11px;">destroy</text>
<text text-anchor="start" x="37.5" y="-355.4" style="font-family:Times New Roman;font-size:11px;">edit</text>
<text text-anchor="start" x="37.5" y="-338.4" style="font-family:Times New Roman;font-size:11px;">index</text>
<text text-anchor="start" x="37.5" y="-321.4" style="font-family:Times New Roman;font-size:11px;">new</text>
<text text-anchor="start" x="37.5" y="-304.4" style="font-family:Times New Roman;font-size:11px;">show</text>
<text text-anchor="start" x="37.5" y="-287.4" style="font-family:Times New Roman;font-size:11px;">toggle_publish</text>
<text text-anchor="start" x="37.5" y="-270.4" style="font-family:Times New Roman;font-size:11px;">update</text>
<polyline style="fill:none;stroke:black;" points="30,-262 183,-262 "/>
<polyline style="fill:none;stroke:black;" points="30,-238 183,-238 "/>
</g>
<!-- ApplicationController&#45;&gt;Admin::EventsController -->
<g id="edge12" class="edge"><title>ApplicationController&#45;&gt;Admin::EventsController</title>
<path style="fill:none;stroke:black;" d="M282,-367C250,-359 215,-350 183,-342"/>
<polygon style="fill:none;stroke:black;" points="281.508,-370.471 292,-369 282.881,-363.607 281.508,-370.471"/>
</g>
<!-- Admin::NewsController -->
<g id="node9" class="node"><title>Admin::NewsController</title>
<polyline style="fill:none;stroke:black;" points="573,-262 696,-262 "/>
<path style="fill:none;stroke:black;" d="M696,-262C702,-262 708,-268 708,-274"/>
<polyline style="fill:none;stroke:black;" points="708,-274 708,-467 "/>
<path style="fill:none;stroke:black;" d="M708,-467C708,-473 702,-479 696,-479"/>
<polyline style="fill:none;stroke:black;" points="696,-479 573,-479 "/>
<path style="fill:none;stroke:black;" d="M573,-479C567,-479 561,-473 561,-467"/>
<polyline style="fill:none;stroke:black;" points="561,-467 561,-274 "/>
<path style="fill:none;stroke:black;" d="M561,-274C561,-268 567,-262 573,-262"/>
<text text-anchor="middle" x="634" y="-461.9" style="font-family:Times New Roman;font-size:11px;">Admin::NewsController</text>
<polyline style="fill:none;stroke:black;" points="561,-454 708,-454 "/>
<text text-anchor="start" x="568.5" y="-437.4" style="font-family:Times New Roman;font-size:11px;">create</text>
<text text-anchor="start" x="568.5" y="-420.4" style="font-family:Times New Roman;font-size:11px;">destroy</text>
<text text-anchor="start" x="568.5" y="-403.4" style="font-family:Times New Roman;font-size:11px;">edit</text>
<text text-anchor="start" x="568.5" y="-386.4" style="font-family:Times New Roman;font-size:11px;">index</text>
<text text-anchor="start" x="568.5" y="-369.4" style="font-family:Times New Roman;font-size:11px;">new</text>
<text text-anchor="start" x="568.5" y="-352.4" style="font-family:Times New Roman;font-size:11px;">show</text>
<text text-anchor="start" x="568.5" y="-335.4" style="font-family:Times New Roman;font-size:11px;">toggle_publish</text>
<text text-anchor="start" x="568.5" y="-318.4" style="font-family:Times New Roman;font-size:11px;">update</text>
<polyline style="fill:none;stroke:black;" points="561,-310 708,-310 "/>
<polyline style="fill:none;stroke:black;" points="561,-286 708,-286 "/>
</g>
<!-- ApplicationController&#45;&gt;Admin::NewsController -->
<g id="edge14" class="edge"><title>ApplicationController&#45;&gt;Admin::NewsController</title>
<path style="fill:none;stroke:black;" d="M443,-381C480,-379 524,-377 561,-375"/>
<polygon style="fill:none;stroke:black;" points="442.602,-377.522 433,-382 443.299,-384.488 442.602,-377.522"/>
</g>
<!-- Admin::HomeController -->
<g id="node10" class="node"><title>Admin::HomeController</title>
<polyline style="fill:none;stroke:black;" points="13,-33 139,-33 "/>
<path style="fill:none;stroke:black;" d="M139,-33C145,-33 151,-39 151,-45"/>
<polyline style="fill:none;stroke:black;" points="151,-45 151,-136 "/>
<path style="fill:none;stroke:black;" d="M151,-136C151,-142 145,-148 139,-148"/>
<polyline style="fill:none;stroke:black;" points="139,-148 13,-148 "/>
<path style="fill:none;stroke:black;" d="M13,-148C7,-148 1,-142 1,-136"/>
<polyline style="fill:none;stroke:black;" points="1,-136 1,-45 "/>
<path style="fill:none;stroke:black;" d="M1,-45C1,-39 7,-33 13,-33"/>
<text text-anchor="middle" x="76" y="-130.9" style="font-family:Times New Roman;font-size:11px;">Admin::HomeController</text>
<polyline style="fill:none;stroke:black;" points="1,-123 151,-123 "/>
<text text-anchor="start" x="9" y="-106.4" style="font-family:Times New Roman;font-size:11px;">index</text>
<text text-anchor="start" x="9" y="-89.4" style="font-family:Times New Roman;font-size:11px;">update</text>
<polyline style="fill:none;stroke:black;" points="1,-81 151,-81 "/>
<polyline style="fill:none;stroke:black;" points="1,-57 151,-57 "/>
</g>
<!-- ApplicationController&#45;&gt;Admin::HomeController -->
<g id="edge16" class="edge"><title>ApplicationController&#45;&gt;Admin::HomeController</title>
<path style="fill:none;stroke:black;" d="M285,-306C237,-256 175,-193 132,-148"/>
<polygon style="fill:none;stroke:black;" points="282.454,-308.404 292,-313 287.404,-303.454 282.454,-308.404"/>
</g>
<!-- Admin::UsersController -->
<g id="node11" class="node"><title>Admin::UsersController</title>
<polyline style="fill:none;stroke:black;" points="602,-1 726,-1 "/>
<path style="fill:none;stroke:black;" d="M726,-1C732,-1 738,-7 738,-13"/>
<polyline style="fill:none;stroke:black;" points="738,-13 738,-189 "/>
<path style="fill:none;stroke:black;" d="M738,-189C738,-195 732,-201 726,-201"/>
<polyline style="fill:none;stroke:black;" points="726,-201 602,-201 "/>
<path style="fill:none;stroke:black;" d="M602,-201C596,-201 590,-195 590,-189"/>
<polyline style="fill:none;stroke:black;" points="590,-189 590,-13 "/>
<path style="fill:none;stroke:black;" d="M590,-13C590,-7 596,-1 602,-1"/>
<text text-anchor="middle" x="664" y="-183.9" style="font-family:Times New Roman;font-size:11px;">Admin::UsersController</text>
<polyline style="fill:none;stroke:black;" points="590,-176 738,-176 "/>
<text text-anchor="start" x="598" y="-158.9" style="font-family:Times New Roman;font-size:11px;">create</text>
<text text-anchor="start" x="598" y="-141.9" style="font-family:Times New Roman;font-size:11px;">destroy</text>
<text text-anchor="start" x="598" y="-124.9" style="font-family:Times New Roman;font-size:11px;">edit</text>
<text text-anchor="start" x="598" y="-107.9" style="font-family:Times New Roman;font-size:11px;">index</text>
<text text-anchor="start" x="598" y="-90.9" style="font-family:Times New Roman;font-size:11px;">new</text>
<text text-anchor="start" x="598" y="-73.9" style="font-family:Times New Roman;font-size:11px;">show</text>
<text text-anchor="start" x="598" y="-56.9" style="font-family:Times New Roman;font-size:11px;">update</text>
<polyline style="fill:none;stroke:black;" points="590,-49 738,-49 "/>
<polyline style="fill:none;stroke:black;" points="590,-25 738,-25 "/>
</g>
<!-- ApplicationController&#45;&gt;Admin::UsersController -->
<g id="edge18" class="edge"><title>ApplicationController&#45;&gt;Admin::UsersController</title>
<path style="fill:none;stroke:black;" d="M441,-312C487,-269 545,-214 590,-171"/>
<polygon style="fill:none;stroke:black;" points="438.221,-309.781 433,-319 442.831,-315.049 438.221,-309.781"/>
</g>
<!-- EventsController -->
<g id="node12" class="node"><title>EventsController</title>
<polyline style="fill:none;stroke:black;" points="419,-67 505,-67 "/>
<path style="fill:none;stroke:black;" d="M505,-67C511,-67 517,-73 517,-79"/>
<polyline style="fill:none;stroke:black;" points="517,-79 517,-187 "/>
<path style="fill:none;stroke:black;" d="M517,-187C517,-193 511,-199 505,-199"/>
<polyline style="fill:none;stroke:black;" points="505,-199 419,-199 "/>
<path style="fill:none;stroke:black;" d="M419,-199C413,-199 407,-193 407,-187"/>
<polyline style="fill:none;stroke:black;" points="407,-187 407,-79 "/>
<path style="fill:none;stroke:black;" d="M407,-79C407,-73 413,-67 419,-67"/>
<text text-anchor="middle" x="462" y="-181.9" style="font-family:Times New Roman;font-size:11px;">EventsController</text>
<polyline style="fill:none;stroke:black;" points="407,-174 517,-174 "/>
<text text-anchor="start" x="415" y="-156.9" style="font-family:Times New Roman;font-size:11px;">index</text>
<text text-anchor="start" x="415" y="-139.9" style="font-family:Times New Roman;font-size:11px;">past</text>
<text text-anchor="start" x="415" y="-122.9" style="font-family:Times New Roman;font-size:11px;">show</text>
<polyline style="fill:none;stroke:black;" points="407,-115 517,-115 "/>
<polyline style="fill:none;stroke:black;" points="407,-91 517,-91 "/>
</g>
<!-- ApplicationController&#45;&gt;EventsController -->
<g id="edge20" class="edge"><title>ApplicationController&#45;&gt;EventsController</title>
<path style="fill:none;stroke:black;" d="M399,-293C411,-262 424,-228 436,-199"/>
<polygon style="fill:none;stroke:black;" points="395.464,-292.415 395,-303 401.964,-295.015 395.464,-292.415"/>
</g>
<!-- NewsController -->
<g id="node13" class="node"><title>NewsController</title>
<polyline style="fill:none;stroke:black;" points="52,-442 132,-442 "/>
<path style="fill:none;stroke:black;" d="M132,-442C138,-442 144,-448 144,-454"/>
<polyline style="fill:none;stroke:black;" points="144,-454 144,-545 "/>
<path style="fill:none;stroke:black;" d="M144,-545C144,-551 138,-557 132,-557"/>
<polyline style="fill:none;stroke:black;" points="132,-557 52,-557 "/>
<path style="fill:none;stroke:black;" d="M52,-557C46,-557 40,-551 40,-545"/>
<polyline style="fill:none;stroke:black;" points="40,-545 40,-454 "/>
<path style="fill:none;stroke:black;" d="M40,-454C40,-448 46,-442 52,-442"/>
<text text-anchor="middle" x="92" y="-539.9" style="font-family:Times New Roman;font-size:11px;">NewsController</text>
<polyline style="fill:none;stroke:black;" points="40,-532 144,-532 "/>
<text text-anchor="start" x="48" y="-515.4" style="font-family:Times New Roman;font-size:11px;">index</text>
<text text-anchor="start" x="48" y="-498.4" style="font-family:Times New Roman;font-size:11px;">show</text>
<polyline style="fill:none;stroke:black;" points="40,-490 144,-490 "/>
<polyline style="fill:none;stroke:black;" points="40,-466 144,-466 "/>
</g>
<!-- ApplicationController&#45;&gt;NewsController -->
<g id="edge22" class="edge"><title>ApplicationController&#45;&gt;NewsController</title>
<path style="fill:none;stroke:black;" d="M283,-420C238,-438 183,-461 144,-478"/>
<polygon style="fill:none;stroke:black;" points="284.283,-423.26 292,-416 281.44,-416.863 284.283,-423.26"/>
</g>
<!-- HomeController -->
<g id="node14" class="node"><title>HomeController</title>
<polyline style="fill:none;stroke:black;" points="609,-533 691,-533 "/>
<path style="fill:none;stroke:black;" d="M691,-533C697,-533 703,-539 703,-545"/>
<polyline style="fill:none;stroke:black;" points="703,-545 703,-636 "/>
<path style="fill:none;stroke:black;" d="M703,-636C703,-642 697,-648 691,-648"/>
<polyline style="fill:none;stroke:black;" points="691,-648 609,-648 "/>
<path style="fill:none;stroke:black;" d="M609,-648C603,-648 597,-642 597,-636"/>
<polyline style="fill:none;stroke:black;" points="597,-636 597,-545 "/>
<path style="fill:none;stroke:black;" d="M597,-545C597,-539 603,-533 609,-533"/>
<text text-anchor="middle" x="650" y="-630.9" style="font-family:Times New Roman;font-size:11px;">HomeController</text>
<polyline style="fill:none;stroke:black;" points="597,-623 703,-623 "/>
<text text-anchor="start" x="605" y="-606.4" style="font-family:Times New Roman;font-size:11px;">index</text>
<text text-anchor="start" x="605" y="-589.4" style="font-family:Times New Roman;font-size:11px;">login</text>
<polyline style="fill:none;stroke:black;" points="597,-581 703,-581 "/>
<polyline style="fill:none;stroke:black;" points="597,-557 703,-557 "/>
</g>
<!-- ApplicationController&#45;&gt;HomeController -->
<g id="edge24" class="edge"><title>ApplicationController&#45;&gt;HomeController</title>
<path style="fill:none;stroke:black;" d="M441,-443C490,-478 554,-522 597,-553"/>
<polygon style="fill:none;stroke:black;" points="443.1,-440.2 433,-437 438.9,-445.8 443.1,-440.2"/>
</g>
<!-- UsersController -->
<g id="node15" class="node"><title>UsersController</title>
<polyline style="fill:none;stroke:black;" points="589,-706 688,-706 "/>
<path style="fill:none;stroke:black;" d="M688,-706C694,-706 700,-712 700,-718"/>
<polyline style="fill:none;stroke:black;" points="700,-718 700,-996 "/>
<path style="fill:none;stroke:black;" d="M700,-996C700,-1002 694,-1008 688,-1008"/>
<polyline style="fill:none;stroke:black;" points="688,-1008 589,-1008 "/>
<path style="fill:none;stroke:black;" d="M589,-1008C583,-1008 577,-1002 577,-996"/>
<polyline style="fill:none;stroke:black;" points="577,-996 577,-718 "/>
<path style="fill:none;stroke:black;" d="M577,-718C577,-712 583,-706 589,-706"/>
<text text-anchor="middle" x="638" y="-990.9" style="font-family:Times New Roman;font-size:11px;">UsersController</text>
<polyline style="fill:none;stroke:black;" points="577,-983 700,-983 "/>
<text text-anchor="start" x="584.5" y="-965.9" style="font-family:Times New Roman;font-size:11px;">create</text>
<text text-anchor="start" x="584.5" y="-948.9" style="font-family:Times New Roman;font-size:11px;">destroy</text>
<text text-anchor="start" x="584.5" y="-931.9" style="font-family:Times New Roman;font-size:11px;">login</text>
<text text-anchor="start" x="584.5" y="-914.9" style="font-family:Times New Roman;font-size:11px;">logout</text>
<text text-anchor="start" x="584.5" y="-897.9" style="font-family:Times New Roman;font-size:11px;">password_reset</text>
<text text-anchor="start" x="584.5" y="-880.9" style="font-family:Times New Roman;font-size:11px;">profile</text>
<text text-anchor="start" x="584.5" y="-863.9" style="font-family:Times New Roman;font-size:11px;">register</text>
<text text-anchor="start" x="584.5" y="-846.9" style="font-family:Times New Roman;font-size:11px;">remove</text>
<text text-anchor="start" x="584.5" y="-829.9" style="font-family:Times New Roman;font-size:11px;">request_credentials</text>
<text text-anchor="start" x="584.5" y="-812.9" style="font-family:Times New Roman;font-size:11px;">send_credentials</text>
<text text-anchor="start" x="584.5" y="-795.9" style="font-family:Times New Roman;font-size:11px;">show</text>
<text text-anchor="start" x="584.5" y="-778.9" style="font-family:Times New Roman;font-size:11px;">update</text>
<text text-anchor="start" x="584.5" y="-761.9" style="font-family:Times New Roman;font-size:11px;">update_password</text>
<polyline style="fill:none;stroke:black;" points="577,-754 700,-754 "/>
<polyline style="fill:none;stroke:black;" points="577,-730 700,-730 "/>
</g>
<!-- ApplicationController&#45;&gt;UsersController -->
<g id="edge26" class="edge"><title>ApplicationController&#45;&gt;UsersController</title>
<path style="fill:none;stroke:black;" d="M419,-478C432,-498 444,-519 456,-539 497,-608 542,-687 577,-748"/>
<polygon style="fill:none;stroke:black;" points="421.916,-476.042 414,-469 415.797,-479.441 421.916,-476.042"/>
</g>
</g>
</svg>
