<?xml version="1.0" encoding="UTF-8" standalone="no"?>
<!DOCTYPE svg PUBLIC "-//W3C//DTD SVG 1.0//EN"
 "http://www.w3.org/TR/2001/REC-SVG-20010904/DTD/svg10.dtd" [
 <!ATTLIST svg xmlns:xlink CDATA #FIXED "http://www.w3.org/1999/xlink">
]>
<!-- Generated by Graphviz version 2.20.3 (Sun Nov &#160;9 07:34:46 UTC 2008)
     For user: (matt)  -->
<!-- Title: models_diagram Pages: 1 -->
<svg width="787pt" height="775pt"
 viewBox="0.00 0.00 787.00 775.00" xmlns="http://www.w3.org/2000/svg" xmlns:xlink="http://www.w3.org/1999/xlink">
<g id="graph0" class="graph" transform="scale(1 1) rotate(0) translate(4 771)">
<title>models_diagram</title>
<polygon style="fill:white;stroke:white;" points="-4,4 -4,-771 783,-771 783,4 -4,4"/>
<!-- _diagram_info -->
<g id="node1" class="node"><title>_diagram_info</title>
<text text-anchor="start" x="548.5" y="-420.4" style="font-family:Times New Roman;font-size:11px;">Models diagram</text>
<text text-anchor="start" x="548.5" y="-403.4" style="font-family:Times New Roman;font-size:11px;">Date: Mar 24 2009 &#45; 18:59</text>
<text text-anchor="start" x="548.5" y="-386.4" style="font-family:Times New Roman;font-size:11px;">Migration version: 20090320214610</text>
<text text-anchor="start" x="548.5" y="-369.4" style="font-family:Times New Roman;font-size:11px;">Generated by RailRoad 0.7.6</text>
</g>
<!-- User -->
<g id="node2" class="node"><title>User</title>
<polyline style="fill:none;stroke:black;" points="304,-333 490,-333 "/>
<path style="fill:none;stroke:black;" d="M490,-333C496,-333 502,-339 502,-345"/>
<polyline style="fill:none;stroke:black;" points="502,-345 502,-575 "/>
<path style="fill:none;stroke:black;" d="M502,-575C502,-581 496,-587 490,-587"/>
<polyline style="fill:none;stroke:black;" points="490,-587 304,-587 "/>
<path style="fill:none;stroke:black;" d="M304,-587C298,-587 292,-581 292,-575"/>
<polyline style="fill:none;stroke:black;" points="292,-575 292,-345 "/>
<path style="fill:none;stroke:black;" d="M292,-345C292,-339 298,-333 304,-333"/>
<text text-anchor="middle" x="397" y="-569.9" style="font-family:Times New Roman;font-size:11px;">User</text>
<polyline style="fill:none;stroke:black;" points="292,-562 502,-562 "/>
<text text-anchor="start" x="300" y="-544.9" style="font-family:Times New Roman;font-size:11px;">first_name :string</text>
<text text-anchor="start" x="300" y="-527.9" style="font-family:Times New Roman;font-size:11px;">last_name :string</text>
<text text-anchor="start" x="300" y="-510.9" style="font-family:Times New Roman;font-size:11px;">username :string</text>
<text text-anchor="start" x="300" y="-493.9" style="font-family:Times New Roman;font-size:11px;">email :string</text>
<text text-anchor="start" x="300" y="-476.9" style="font-family:Times New Roman;font-size:11px;">hashed_password :string</text>
<text text-anchor="start" x="300" y="-459.9" style="font-family:Times New Roman;font-size:11px;">salt :string</text>
<text text-anchor="start" x="300" y="-442.9" style="font-family:Times New Roman;font-size:11px;">created_at :datetime</text>
<text text-anchor="start" x="300" y="-425.9" style="font-family:Times New Roman;font-size:11px;">updated_at :datetime</text>
<text text-anchor="start" x="300" y="-408.9" style="font-family:Times New Roman;font-size:11px;">remember_token :string</text>
<text text-anchor="start" x="300" y="-391.9" style="font-family:Times New Roman;font-size:11px;">remember_token_expires :datetime</text>
<text text-anchor="start" x="300" y="-374.9" style="font-family:Times New Roman;font-size:11px;">contactable :boolean</text>
<text text-anchor="start" x="300" y="-357.9" style="font-family:Times New Roman;font-size:11px;">reset_hash :string</text>
<text text-anchor="start" x="300" y="-340.9" style="font-family:Times New Roman;font-size:11px;">reset_hash_expires :datetime</text>
</g>
<!-- Article -->
<g id="node3" class="node"><title>Article</title>
<polyline style="fill:none;stroke:black;" points="162,-256 270,-256 "/>
<path style="fill:none;stroke:black;" d="M270,-256C276,-256 282,-262 282,-268"/>
<polyline style="fill:none;stroke:black;" points="282,-268 282,-379 "/>
<path style="fill:none;stroke:black;" d="M282,-379C282,-385 276,-391 270,-391"/>
<polyline style="fill:none;stroke:black;" points="270,-391 162,-391 "/>
<path style="fill:none;stroke:black;" d="M162,-391C156,-391 150,-385 150,-379"/>
<polyline style="fill:none;stroke:black;" points="150,-379 150,-268 "/>
<path style="fill:none;stroke:black;" d="M150,-268C150,-262 156,-256 162,-256"/>
<text text-anchor="middle" x="216" y="-373.9" style="font-family:Times New Roman;font-size:11px;">Article</text>
<polyline style="fill:none;stroke:black;" points="150,-366 282,-366 "/>
<text text-anchor="start" x="158" y="-349.4" style="font-family:Times New Roman;font-size:11px;">title :string</text>
<text text-anchor="start" x="158" y="-332.4" style="font-family:Times New Roman;font-size:11px;">description :string</text>
<text text-anchor="start" x="158" y="-315.4" style="font-family:Times New Roman;font-size:11px;">body :text</text>
<text text-anchor="start" x="158" y="-298.4" style="font-family:Times New Roman;font-size:11px;">created_at :datetime</text>
<text text-anchor="start" x="158" y="-281.4" style="font-family:Times New Roman;font-size:11px;">updated_at :datetime</text>
<text text-anchor="start" x="158" y="-264.4" style="font-family:Times New Roman;font-size:11px;">published :boolean</text>
</g>
<!-- User&#45;&gt;Article -->
<g id="edge6" class="edge"><title>User&#45;&gt;Article</title>
<path style="fill:none;stroke:black;" d="M284,-375C284,-375 284,-375 283,-375"/>
<polygon style="fill:black;stroke:black;" points="284,-375 289.3,-384.6 288,-378 292,-381 292,-381 292,-381 288,-378 294.7,-377.4 284,-375 284,-375"/>
<ellipse style="fill:black;stroke:black;" cx="284.829" cy="-376.829" rx="4.00012" ry="4.00012"/>
</g>
<!-- Gallery -->
<g id="node5" class="node"><title>Gallery</title>
<polyline style="fill:none;stroke:black;" points="238,-665 346,-665 "/>
<path style="fill:none;stroke:black;" d="M346,-665C352,-665 358,-671 358,-677"/>
<polyline style="fill:none;stroke:black;" points="358,-677 358,-754 "/>
<path style="fill:none;stroke:black;" d="M358,-754C358,-760 352,-766 346,-766"/>
<polyline style="fill:none;stroke:black;" points="346,-766 238,-766 "/>
<path style="fill:none;stroke:black;" d="M238,-766C232,-766 226,-760 226,-754"/>
<polyline style="fill:none;stroke:black;" points="226,-754 226,-677 "/>
<path style="fill:none;stroke:black;" d="M226,-677C226,-671 232,-665 238,-665"/>
<text text-anchor="middle" x="292" y="-748.9" style="font-family:Times New Roman;font-size:11px;">Gallery</text>
<polyline style="fill:none;stroke:black;" points="226,-741 358,-741 "/>
<text text-anchor="start" x="234" y="-724.4" style="font-family:Times New Roman;font-size:11px;">title :string</text>
<text text-anchor="start" x="234" y="-707.4" style="font-family:Times New Roman;font-size:11px;">description :text</text>
<text text-anchor="start" x="234" y="-690.4" style="font-family:Times New Roman;font-size:11px;">created_at :datetime</text>
<text text-anchor="start" x="234" y="-673.4" style="font-family:Times New Roman;font-size:11px;">updated_at :datetime</text>
</g>
<!-- User&#45;&gt;Gallery -->
<g id="edge10" class="edge"><title>User&#45;&gt;Gallery</title>
<path style="fill:none;stroke:black;" d="M341,-596C332,-618 324,-639 316,-657"/>
<polygon style="fill:black;stroke:black;" points="340.939,-596.138 349.112,-588.828 342.969,-591.569 345,-587 345,-587 345,-587 342.969,-591.569 340.888,-585.172 340.939,-596.138 340.939,-596.138"/>
<ellipse style="fill:black;stroke:black;" cx="314.405" cy="-661.255" rx="4.00001" ry="4.00001"/>
</g>
<!-- Image -->
<g id="node6" class="node"><title>Image</title>
<polyline style="fill:none;stroke:black;" points="516,-603 624,-603 "/>
<path style="fill:none;stroke:black;" d="M624,-603C630,-603 636,-609 636,-615"/>
<polyline style="fill:none;stroke:black;" points="636,-615 636,-675 "/>
<path style="fill:none;stroke:black;" d="M636,-675C636,-681 630,-687 624,-687"/>
<polyline style="fill:none;stroke:black;" points="624,-687 516,-687 "/>
<path style="fill:none;stroke:black;" d="M516,-687C510,-687 504,-681 504,-675"/>
<polyline style="fill:none;stroke:black;" points="504,-675 504,-615 "/>
<path style="fill:none;stroke:black;" d="M504,-615C504,-609 510,-603 516,-603"/>
<text text-anchor="middle" x="570" y="-669.9" style="font-family:Times New Roman;font-size:11px;">Image</text>
<polyline style="fill:none;stroke:black;" points="504,-662 636,-662 "/>
<text text-anchor="start" x="512" y="-644.9" style="font-family:Times New Roman;font-size:11px;">name :string</text>
<text text-anchor="start" x="512" y="-627.9" style="font-family:Times New Roman;font-size:11px;">created_at :datetime</text>
<text text-anchor="start" x="512" y="-610.9" style="font-family:Times New Roman;font-size:11px;">updated_at :datetime</text>
</g>
<!-- User&#45;&gt;Image -->
<g id="edge2" class="edge"><title>User&#45;&gt;Image</title>
<path style="fill:none;stroke:black;" d="M509,-580C515,-586 520,-591 525,-596"/>
<polygon style="fill:black;stroke:black;" points="508.585,-579.526 505.387,-569.037 505.293,-575.763 502,-572 502,-572 502,-572 505.293,-575.763 498.613,-574.963 508.585,-579.526 508.585,-579.526"/>
<ellipse style="fill:black;stroke:black;" cx="527.675" cy="-599.745" rx="4.00002" ry="4.00002"/>
</g>
<!-- News -->
<g id="node7" class="node"><title>News</title>
<polyline style="fill:none;stroke:black;" points="13,-539 121,-539 "/>
<path style="fill:none;stroke:black;" d="M121,-539C127,-539 133,-545 133,-551"/>
<polyline style="fill:none;stroke:black;" points="133,-551 133,-645 "/>
<path style="fill:none;stroke:black;" d="M133,-645C133,-651 127,-657 121,-657"/>
<polyline style="fill:none;stroke:black;" points="121,-657 13,-657 "/>
<path style="fill:none;stroke:black;" d="M13,-657C7,-657 1,-651 1,-645"/>
<polyline style="fill:none;stroke:black;" points="1,-645 1,-551 "/>
<path style="fill:none;stroke:black;" d="M1,-551C1,-545 7,-539 13,-539"/>
<text text-anchor="middle" x="67" y="-639.9" style="font-family:Times New Roman;font-size:11px;">News</text>
<polyline style="fill:none;stroke:black;" points="1,-632 133,-632 "/>
<text text-anchor="start" x="9" y="-614.9" style="font-family:Times New Roman;font-size:11px;">title :string</text>
<text text-anchor="start" x="9" y="-597.9" style="font-family:Times New Roman;font-size:11px;">body :text</text>
<text text-anchor="start" x="9" y="-580.9" style="font-family:Times New Roman;font-size:11px;">published :boolean</text>
<text text-anchor="start" x="9" y="-563.9" style="font-family:Times New Roman;font-size:11px;">created_at :datetime</text>
<text text-anchor="start" x="9" y="-546.9" style="font-family:Times New Roman;font-size:11px;">updated_at :datetime</text>
</g>
<!-- User&#45;&gt;News -->
<g id="edge4" class="edge"><title>User&#45;&gt;News</title>
<path style="fill:none;stroke:black;" d="M283,-508C236,-528 182,-549 141,-567"/>
<polygon style="fill:black;stroke:black;" points="282.862,-508.061 293.828,-508.112 287.431,-506.031 292,-504 292,-504 292,-504 287.431,-506.031 290.172,-499.888 282.862,-508.061 282.862,-508.061"/>
<ellipse style="fill:black;stroke:black;" cx="136.745" cy="-568.595" rx="4.00001" ry="4.00001"/>
</g>
<!-- Event -->
<g id="node12" class="node"><title>Event</title>
<polyline style="fill:none;stroke:black;" points="525,-130 633,-130 "/>
<path style="fill:none;stroke:black;" d="M633,-130C639,-130 645,-136 645,-142"/>
<polyline style="fill:none;stroke:black;" points="645,-142 645,-304 "/>
<path style="fill:none;stroke:black;" d="M645,-304C645,-310 639,-316 633,-316"/>
<polyline style="fill:none;stroke:black;" points="633,-316 525,-316 "/>
<path style="fill:none;stroke:black;" d="M525,-316C519,-316 513,-310 513,-304"/>
<polyline style="fill:none;stroke:black;" points="513,-304 513,-142 "/>
<path style="fill:none;stroke:black;" d="M513,-142C513,-136 519,-130 525,-130"/>
<text text-anchor="middle" x="579" y="-298.9" style="font-family:Times New Roman;font-size:11px;">Event</text>
<polyline style="fill:none;stroke:black;" points="513,-291 645,-291 "/>
<text text-anchor="start" x="521" y="-273.9" style="font-family:Times New Roman;font-size:11px;">name :string</text>
<text text-anchor="start" x="521" y="-256.9" style="font-family:Times New Roman;font-size:11px;">starts_at :datetime</text>
<text text-anchor="start" x="521" y="-239.9" style="font-family:Times New Roman;font-size:11px;">ends_at :datetime</text>
<text text-anchor="start" x="521" y="-222.9" style="font-family:Times New Roman;font-size:11px;">location :string</text>
<text text-anchor="start" x="521" y="-205.9" style="font-family:Times New Roman;font-size:11px;">description :text</text>
<text text-anchor="start" x="521" y="-188.9" style="font-family:Times New Roman;font-size:11px;">published :boolean</text>
<text text-anchor="start" x="521" y="-171.9" style="font-family:Times New Roman;font-size:11px;">is_address :boolean</text>
<text text-anchor="start" x="521" y="-154.9" style="font-family:Times New Roman;font-size:11px;">created_at :datetime</text>
<text text-anchor="start" x="521" y="-137.9" style="font-family:Times New Roman;font-size:11px;">updated_at :datetime</text>
</g>
<!-- User&#45;&gt;Event -->
<g id="edge8" class="edge"><title>User&#45;&gt;Event</title>
<path style="fill:none;stroke:black;" d="M501,-325C503,-322 506,-319 508,-317"/>
<polygon style="fill:black;stroke:black;" points="501,-325 491.4,-330.3 498,-329 495,-333 495,-333 495,-333 498,-329 498.6,-335.7 501,-325 501,-325"/>
<ellipse style="fill:black;stroke:black;" cx="510.675" cy="-313.255" rx="4.00002" ry="4.00002"/>
</g>
<!-- ArticleRevision -->
<g id="node11" class="node"><title>ArticleRevision</title>
<polyline style="fill:none;stroke:black;" points="339,-0 447,-0 "/>
<path style="fill:none;stroke:black;" d="M447,-0C453,-0 459,-6 459,-12"/>
<polyline style="fill:none;stroke:black;" points="459,-12 459,-123 "/>
<path style="fill:none;stroke:black;" d="M459,-123C459,-129 453,-135 447,-135"/>
<polyline style="fill:none;stroke:black;" points="447,-135 339,-135 "/>
<path style="fill:none;stroke:black;" d="M339,-135C333,-135 327,-129 327,-123"/>
<polyline style="fill:none;stroke:black;" points="327,-123 327,-12 "/>
<path style="fill:none;stroke:black;" d="M327,-12C327,-6 333,-0 339,-0"/>
<text text-anchor="middle" x="393" y="-117.9" style="font-family:Times New Roman;font-size:11px;">ArticleRevision</text>
<polyline style="fill:none;stroke:black;" points="327,-110 459,-110 "/>
<text text-anchor="start" x="335" y="-93.4" style="font-family:Times New Roman;font-size:11px;">revision :integer</text>
<text text-anchor="start" x="335" y="-76.4" style="font-family:Times New Roman;font-size:11px;">title :string</text>
<text text-anchor="start" x="335" y="-59.4" style="font-family:Times New Roman;font-size:11px;">description :string</text>
<text text-anchor="start" x="335" y="-42.4" style="font-family:Times New Roman;font-size:11px;">body :string</text>
<text text-anchor="start" x="335" y="-25.4" style="font-family:Times New Roman;font-size:11px;">created_at :datetime</text>
<text text-anchor="start" x="335" y="-8.4" style="font-family:Times New Roman;font-size:11px;">updated_at :datetime</text>
</g>
<!-- Article&#45;&gt;ArticleRevision -->
<g id="edge12" class="edge"><title>Article&#45;&gt;ArticleRevision</title>
<path style="fill:none;stroke:black;" d="M269,-248C292,-214 319,-175 342,-142"/>
<polygon style="fill:black;stroke:black;" points="269,-248 259.4,-253.3 266,-252 263,-256 263,-256 263,-256 266,-252 266.6,-258.7 269,-248 269,-248"/>
<ellipse style="fill:black;stroke:black;" cx="344.675" cy="-138.255" rx="4.00002" ry="4.00002"/>
</g>
<!-- Role -->
<g id="node4" class="node"><title>Role</title>
<polyline style="fill:none;stroke:black;" points="17,-61 144,-61 "/>
<path style="fill:none;stroke:black;" d="M144,-61C150,-61 156,-67 156,-73"/>
<polyline style="fill:none;stroke:black;" points="156,-73 156,-184 "/>
<path style="fill:none;stroke:black;" d="M156,-184C156,-190 150,-196 144,-196"/>
<polyline style="fill:none;stroke:black;" points="144,-196 17,-196 "/>
<path style="fill:none;stroke:black;" d="M17,-196C11,-196 5,-190 5,-184"/>
<polyline style="fill:none;stroke:black;" points="5,-184 5,-73 "/>
<path style="fill:none;stroke:black;" d="M5,-73C5,-67 11,-61 17,-61"/>
<text text-anchor="middle" x="80" y="-178.9" style="font-family:Times New Roman;font-size:11px;">Role</text>
<polyline style="fill:none;stroke:black;" points="5,-171 156,-171 "/>
<text text-anchor="start" x="12.5" y="-154.4" style="font-family:Times New Roman;font-size:11px;">name :string</text>
<text text-anchor="start" x="12.5" y="-137.4" style="font-family:Times New Roman;font-size:11px;">can_create :boolean</text>
<text text-anchor="start" x="12.5" y="-120.4" style="font-family:Times New Roman;font-size:11px;">can_update :boolean</text>
<text text-anchor="start" x="12.5" y="-103.4" style="font-family:Times New Roman;font-size:11px;">can_delete :boolean</text>
<text text-anchor="start" x="12.5" y="-86.4" style="font-family:Times New Roman;font-size:11px;">can_publish :boolean</text>
<text text-anchor="start" x="12.5" y="-69.4" style="font-family:Times New Roman;font-size:11px;">can_administer :boolean</text>
</g>
<!-- Role&#45;&gt;User -->
<g id="edge14" class="edge"><title>Role&#45;&gt;User</title>
<path style="fill:none;stroke:black;" d="M165,-168C205,-188 252,-218 285,-253 305,-274 323,-300 338,-326"/>
<polygon style="fill:black;stroke:black;" points="164.742,-167.856 158.185,-159.066 160.371,-165.428 156,-163 156,-163 156,-163 160.371,-165.428 153.815,-166.934 164.742,-167.856 164.742,-167.856"/>
<ellipse style="fill:black;stroke:black;" cx="340.015" cy="-329.527" rx="4.00002" ry="4.00002"/>
</g>
<!-- Gallery&#45;&gt;Image -->
<g id="edge16" class="edge"><title>Gallery&#45;&gt;Image</title>
<path style="fill:none;stroke:black;" d="M368,-697C407,-687 455,-674 494,-664"/>
<polygon style="fill:black;stroke:black;" points="367.806,-697.039 357.117,-694.587 362.903,-698.019 358,-699 358,-699 358,-699 362.903,-698.019 358.883,-703.413 367.806,-697.039 367.806,-697.039"/>
<polygon style="fill:black;stroke:black;" points="494.194,-663.961 504.883,-666.413 499.097,-662.981 504,-662 504,-662 504,-662 499.097,-662.981 503.117,-657.587 494.194,-663.961 494.194,-663.961"/>
</g>
<!-- GalleriesImages -->
<g id="node8" class="node"><title>GalleriesImages</title>
<polyline style="fill:none;stroke:black;" points="121,-432 201,-432 "/>
<path style="fill:none;stroke:black;" d="M201,-432C207,-432 213,-438 213,-444"/>
<polyline style="fill:none;stroke:black;" points="213,-444 213,-469 "/>
<path style="fill:none;stroke:black;" d="M213,-469C213,-475 207,-481 201,-481"/>
<polyline style="fill:none;stroke:black;" points="201,-481 121,-481 "/>
<path style="fill:none;stroke:black;" d="M121,-481C115,-481 109,-475 109,-469"/>
<polyline style="fill:none;stroke:black;" points="109,-469 109,-444 "/>
<path style="fill:none;stroke:black;" d="M109,-444C109,-438 115,-432 121,-432"/>
<text text-anchor="middle" x="161" y="-463.9" style="font-family:Times New Roman;font-size:11px;">GalleriesImages</text>
<polyline style="fill:none;stroke:black;" points="109,-456 213,-456 "/>
</g>
<!-- Setting -->
<g id="node9" class="node"><title>Setting</title>
<polyline style="fill:none;stroke:black;" points="337,-180 445,-180 "/>
<path style="fill:none;stroke:black;" d="M445,-180C451,-180 457,-186 457,-192"/>
<polyline style="fill:none;stroke:black;" points="457,-192 457,-269 "/>
<path style="fill:none;stroke:black;" d="M457,-269C457,-275 451,-281 445,-281"/>
<polyline style="fill:none;stroke:black;" points="445,-281 337,-281 "/>
<path style="fill:none;stroke:black;" d="M337,-281C331,-281 325,-275 325,-269"/>
<polyline style="fill:none;stroke:black;" points="325,-269 325,-192 "/>
<path style="fill:none;stroke:black;" d="M325,-192C325,-186 331,-180 337,-180"/>
<text text-anchor="middle" x="391" y="-263.9" style="font-family:Times New Roman;font-size:11px;">Setting</text>
<polyline style="fill:none;stroke:black;" points="325,-256 457,-256 "/>
<text text-anchor="start" x="333" y="-239.4" style="font-family:Times New Roman;font-size:11px;">option :string</text>
<text text-anchor="start" x="333" y="-222.4" style="font-family:Times New Roman;font-size:11px;">value :text</text>
<text text-anchor="start" x="333" y="-205.4" style="font-family:Times New Roman;font-size:11px;">created_at :datetime</text>
<text text-anchor="start" x="333" y="-188.4" style="font-family:Times New Roman;font-size:11px;">updated_at :datetime</text>
</g>
<!-- Mailer -->
<g id="node10" class="node"><title>Mailer</title>
<polygon style="fill:none;stroke:black;" points="541,-469 541,-519 595,-519 595,-469 541,-469"/>
<text text-anchor="middle" x="568" y="-501.9" style="font-family:Times New Roman;font-size:11px;">Mailer</text>
<polyline style="fill:none;stroke:black;" points="541,-494 595,-494 "/>
<text text-anchor="middle" x="568" y="-476.9" style="font-family:Times New Roman;font-size:11px;"> </text>
</g>
<!-- ActionMailer::Base -->
<g id="node21" class="node"><title>ActionMailer::Base</title>
<ellipse style="fill:none;stroke:black;" cx="694" cy="-493" rx="84.0808" ry="18"/>
<text text-anchor="middle" x="694" y="-488.9" style="font-family:Times New Roman;font-size:11px;">ActionMailer::Base</text>
</g>
<!-- ActionMailer::Base&#45;&gt;Mailer -->
<g id="edge18" class="edge"><title>ActionMailer::Base&#45;&gt;Mailer</title>
<path style="fill:none;stroke:black;" d="M600,-494C598,-494 597,-494 595,-494"/>
<polygon style="fill:none;stroke:black;" points="600,-497.5 610,-494 600,-490.5 600,-497.5"/>
</g>
</g>
</svg>
