<?xml version="1.0" encoding="UTF-8" standalone="no"?>
<!DOCTYPE svg PUBLIC "-//W3C//DTD SVG 1.0//EN"
 "http://www.w3.org/TR/2001/REC-SVG-20010904/DTD/svg10.dtd" [
 <!ATTLIST svg xmlns:xlink CDATA #FIXED "http://www.w3.org/1999/xlink">
]>
<!-- Generated by Graphviz version 2.20.3 (Sun Nov &#160;9 07:34:46 UTC 2008)
     For user: (matt)  -->
<!-- Title: models_diagram Pages: 1 -->
<svg width="851pt" height="828pt"
 viewBox="0.00 0.00 851.00 828.00" xmlns="http://www.w3.org/2000/svg" xmlns:xlink="http://www.w3.org/1999/xlink">
<g id="graph0" class="graph" transform="scale(1 1) rotate(0) translate(4 824)">
<title>models_diagram</title>
<polygon style="fill:white;stroke:white;" points="-4,4 -4,-824 847,-824 847,4 -4,4"/>
<!-- _diagram_info -->
<g id="node1" class="node"><title>_diagram_info</title>
<text text-anchor="start" x="10.5" y="-773.4" style="font-family:Times New Roman;font-size:11.00;">Models diagram</text>
<text text-anchor="start" x="10.5" y="-756.4" style="font-family:Times New Roman;font-size:11.00;">Date: Mar 24 2009 &#45; 18:39</text>
<text text-anchor="start" x="10.5" y="-739.4" style="font-family:Times New Roman;font-size:11.00;">Migration version: 20090320214610</text>
<text text-anchor="start" x="10.5" y="-722.4" style="font-family:Times New Roman;font-size:11.00;">Generated by RailRoad 0.7.6</text>
</g>
<!-- User -->
<g id="node2" class="node"><title>User</title>
<polyline style="fill:none;stroke:black;" points="217,-394 403,-394 "/>
<path style="fill:none;stroke:black;" d="M403,-394C409,-394 415,-400 415,-406"/>
<polyline style="fill:none;stroke:black;" points="415,-406 415,-636 "/>
<path style="fill:none;stroke:black;" d="M415,-636C415,-642 409,-648 403,-648"/>
<polyline style="fill:none;stroke:black;" points="403,-648 217,-648 "/>
<path style="fill:none;stroke:black;" d="M217,-648C211,-648 205,-642 205,-636"/>
<polyline style="fill:none;stroke:black;" points="205,-636 205,-406 "/>
<path style="fill:none;stroke:black;" d="M205,-406C205,-400 211,-394 217,-394"/>
<text text-anchor="middle" x="310" y="-630.9" style="font-family:Times New Roman;font-size:11.00;">User</text>
<polyline style="fill:none;stroke:black;" points="205,-623 415,-623 "/>
<text text-anchor="start" x="213" y="-605.9" style="font-family:Times New Roman;font-size:11.00;">first_name :string</text>
<text text-anchor="start" x="213" y="-588.9" style="font-family:Times New Roman;font-size:11.00;">last_name :string</text>
<text text-anchor="start" x="213" y="-571.9" style="font-family:Times New Roman;font-size:11.00;">username :string</text>
<text text-anchor="start" x="213" y="-554.9" style="font-family:Times New Roman;font-size:11.00;">email :string</text>
<text text-anchor="start" x="213" y="-537.9" style="font-family:Times New Roman;font-size:11.00;">hashed_password :string</text>
<text text-anchor="start" x="213" y="-520.9" style="font-family:Times New Roman;font-size:11.00;">salt :string</text>
<text text-anchor="start" x="213" y="-503.9" style="font-family:Times New Roman;font-size:11.00;">created_at :datetime</text>
<text text-anchor="start" x="213" y="-486.9" style="font-family:Times New Roman;font-size:11.00;">updated_at :datetime</text>
<text text-anchor="start" x="213" y="-469.9" style="font-family:Times New Roman;font-size:11.00;">remember_token :string</text>
<text text-anchor="start" x="213" y="-452.9" style="font-family:Times New Roman;font-size:11.00;">remember_token_expires :datetime</text>
<text text-anchor="start" x="213" y="-435.9" style="font-family:Times New Roman;font-size:11.00;">contactable :boolean</text>
<text text-anchor="start" x="213" y="-418.9" style="font-family:Times New Roman;font-size:11.00;">reset_hash :string</text>
<text text-anchor="start" x="213" y="-401.9" style="font-family:Times New Roman;font-size:11.00;">reset_hash_expires :datetime</text>
</g>
<!-- Article -->
<g id="node3" class="node"><title>Article</title>
<polyline style="fill:none;stroke:black;" points="12,-197 120,-197 "/>
<path style="fill:none;stroke:black;" d="M120,-197C126,-197 132,-203 132,-209"/>
<polyline style="fill:none;stroke:black;" points="132,-209 132,-320 "/>
<path style="fill:none;stroke:black;" d="M132,-320C132,-326 126,-332 120,-332"/>
<polyline style="fill:none;stroke:black;" points="120,-332 12,-332 "/>
<path style="fill:none;stroke:black;" d="M12,-332C6,-332 0,-326 0,-320"/>
<polyline style="fill:none;stroke:black;" points="0,-320 0,-209 "/>
<path style="fill:none;stroke:black;" d="M0,-209C0,-203 6,-197 12,-197"/>
<text text-anchor="middle" x="66" y="-314.9" style="font-family:Times New Roman;font-size:11.00;">Article</text>
<polyline style="fill:none;stroke:black;" points="0,-307 132,-307 "/>
<text text-anchor="start" x="8" y="-290.4" style="font-family:Times New Roman;font-size:11.00;">title :string</text>
<text text-anchor="start" x="8" y="-273.4" style="font-family:Times New Roman;font-size:11.00;">description :string</text>
<text text-anchor="start" x="8" y="-256.4" style="font-family:Times New Roman;font-size:11.00;">body :text</text>
<text text-anchor="start" x="8" y="-239.4" style="font-family:Times New Roman;font-size:11.00;">created_at :datetime</text>
<text text-anchor="start" x="8" y="-222.4" style="font-family:Times New Roman;font-size:11.00;">updated_at :datetime</text>
<text text-anchor="start" x="8" y="-205.4" style="font-family:Times New Roman;font-size:11.00;">published :boolean</text>
</g>
<!-- User&#45;&gt;Article -->
<g id="edge6" class="edge"><title>User&#45;&gt;Article</title>
<path style="fill:none;stroke:black;" d="M198,-416C178,-397 159,-378 141,-358 136,-352 130,-345 124,-338"/>
<polygon style="fill:black;stroke:black;" points="197.929,-415.929 201.818,-426.182 201.464,-419.464 205,-423 205,-423 205,-423 201.464,-419.464 208.182,-419.818 197.929,-415.929 197.929,-415.929"/>
<ellipse style="fill:black;stroke:black;" cx="121.561" cy="-335.073" rx="4.00002" ry="4.00002"/>
</g>
<!-- Gallery -->
<g id="node5" class="node"><title>Gallery</title>
<polyline style="fill:none;stroke:black;" points="162,-214 270,-214 "/>
<path style="fill:none;stroke:black;" d="M270,-214C276,-214 282,-220 282,-226"/>
<polyline style="fill:none;stroke:black;" points="282,-226 282,-303 "/>
<path style="fill:none;stroke:black;" d="M282,-303C282,-309 276,-315 270,-315"/>
<polyline style="fill:none;stroke:black;" points="270,-315 162,-315 "/>
<path style="fill:none;stroke:black;" d="M162,-315C156,-315 150,-309 150,-303"/>
<polyline style="fill:none;stroke:black;" points="150,-303 150,-226 "/>
<path style="fill:none;stroke:black;" d="M150,-226C150,-220 156,-214 162,-214"/>
<text text-anchor="middle" x="216" y="-297.9" style="font-family:Times New Roman;font-size:11.00;">Gallery</text>
<polyline style="fill:none;stroke:black;" points="150,-290 282,-290 "/>
<text text-anchor="start" x="158" y="-273.4" style="font-family:Times New Roman;font-size:11.00;">title :string</text>
<text text-anchor="start" x="158" y="-256.4" style="font-family:Times New Roman;font-size:11.00;">description :text</text>
<text text-anchor="start" x="158" y="-239.4" style="font-family:Times New Roman;font-size:11.00;">created_at :datetime</text>
<text text-anchor="start" x="158" y="-222.4" style="font-family:Times New Roman;font-size:11.00;">updated_at :datetime</text>
</g>
<!-- User&#45;&gt;Gallery -->
<g id="edge10" class="edge"><title>User&#45;&gt;Gallery</title>
<path style="fill:none;stroke:black;" d="M260,-384C252,-363 244,-341 237,-323"/>
<polygon style="fill:black;stroke:black;" points="260.126,-384.422 258.69,-395.293 261.563,-389.211 263,-394 263,-394 263,-394 261.563,-389.211 267.31,-392.707 260.126,-384.422 260.126,-384.422"/>
<ellipse style="fill:black;stroke:black;" cx="235.405" cy="-318.745" rx="4.00001" ry="4.00001"/>
</g>
<!-- Image -->
<g id="node6" class="node"><title>Image</title>
<polyline style="fill:none;stroke:black;" points="209,-26 317,-26 "/>
<path style="fill:none;stroke:black;" d="M317,-26C323,-26 329,-32 329,-38"/>
<polyline style="fill:none;stroke:black;" points="329,-38 329,-98 "/>
<path style="fill:none;stroke:black;" d="M329,-98C329,-104 323,-110 317,-110"/>
<polyline style="fill:none;stroke:black;" points="317,-110 209,-110 "/>
<path style="fill:none;stroke:black;" d="M209,-110C203,-110 197,-104 197,-98"/>
<polyline style="fill:none;stroke:black;" points="197,-98 197,-38 "/>
<path style="fill:none;stroke:black;" d="M197,-38C197,-32 203,-26 209,-26"/>
<text text-anchor="middle" x="263" y="-92.9" style="font-family:Times New Roman;font-size:11.00;">Image</text>
<polyline style="fill:none;stroke:black;" points="197,-85 329,-85 "/>
<text text-anchor="start" x="205" y="-67.9" style="font-family:Times New Roman;font-size:11.00;">name :string</text>
<text text-anchor="start" x="205" y="-50.9" style="font-family:Times New Roman;font-size:11.00;">created_at :datetime</text>
<text text-anchor="start" x="205" y="-33.9" style="font-family:Times New Roman;font-size:11.00;">updated_at :datetime</text>
</g>
<!-- User&#45;&gt;Image -->
<g id="edge2" class="edge"><title>User&#45;&gt;Image</title>
<path style="fill:none;stroke:black;" d="M310,-384C307,-319 302,-241 291,-172 288,-154 284,-135 279,-118"/>
<polygon style="fill:black;stroke:black;" points="310,-384 305.5,-394 310,-389 310,-394 310,-394 310,-394 310,-389 314.5,-394 310,-384 310,-384"/>
<ellipse style="fill:black;stroke:black;" cx="277.97" cy="-113.881" rx="4.00001" ry="4.00001"/>
</g>
<!-- News -->
<g id="node7" class="node"><title>News</title>
<polyline style="fill:none;stroke:black;" points="350,-206 458,-206 "/>
<path style="fill:none;stroke:black;" d="M458,-206C464,-206 470,-212 470,-218"/>
<polyline style="fill:none;stroke:black;" points="470,-218 470,-312 "/>
<path style="fill:none;stroke:black;" d="M470,-312C470,-318 464,-324 458,-324"/>
<polyline style="fill:none;stroke:black;" points="458,-324 350,-324 "/>
<path style="fill:none;stroke:black;" d="M350,-324C344,-324 338,-318 338,-312"/>
<polyline style="fill:none;stroke:black;" points="338,-312 338,-218 "/>
<path style="fill:none;stroke:black;" d="M338,-218C338,-212 344,-206 350,-206"/>
<text text-anchor="middle" x="404" y="-306.9" style="font-family:Times New Roman;font-size:11.00;">News</text>
<polyline style="fill:none;stroke:black;" points="338,-299 470,-299 "/>
<text text-anchor="start" x="346" y="-281.9" style="font-family:Times New Roman;font-size:11.00;">title :string</text>
<text text-anchor="start" x="346" y="-264.9" style="font-family:Times New Roman;font-size:11.00;">body :text</text>
<text text-anchor="start" x="346" y="-247.9" style="font-family:Times New Roman;font-size:11.00;">published :boolean</text>
<text text-anchor="start" x="346" y="-230.9" style="font-family:Times New Roman;font-size:11.00;">created_at :datetime</text>
<text text-anchor="start" x="346" y="-213.9" style="font-family:Times New Roman;font-size:11.00;">updated_at :datetime</text>
</g>
<!-- User&#45;&gt;News -->
<g id="edge4" class="edge"><title>User&#45;&gt;News</title>
<path style="fill:none;stroke:black;" d="M361,-384C367,-366 374,-348 379,-332"/>
<polygon style="fill:black;stroke:black;" points="360.714,-384.715 352.822,-392.329 358.857,-389.358 357,-394 357,-394 357,-394 358.857,-389.358 361.178,-395.671 360.714,-384.715 360.714,-384.715"/>
<ellipse style="fill:black;stroke:black;" cx="380.595" cy="-327.745" rx="4.00001" ry="4.00001"/>
</g>
<!-- Event -->
<g id="node12" class="node"><title>Event</title>
<polyline style="fill:none;stroke:black;" points="500,-172 608,-172 "/>
<path style="fill:none;stroke:black;" d="M608,-172C614,-172 620,-178 620,-184"/>
<polyline style="fill:none;stroke:black;" points="620,-184 620,-346 "/>
<path style="fill:none;stroke:black;" d="M620,-346C620,-352 614,-358 608,-358"/>
<polyline style="fill:none;stroke:black;" points="608,-358 500,-358 "/>
<path style="fill:none;stroke:black;" d="M500,-358C494,-358 488,-352 488,-346"/>
<polyline style="fill:none;stroke:black;" points="488,-346 488,-184 "/>
<path style="fill:none;stroke:black;" d="M488,-184C488,-178 494,-172 500,-172"/>
<text text-anchor="middle" x="554" y="-340.9" style="font-family:Times New Roman;font-size:11.00;">Event</text>
<polyline style="fill:none;stroke:black;" points="488,-333 620,-333 "/>
<text text-anchor="start" x="496" y="-315.9" style="font-family:Times New Roman;font-size:11.00;">name :string</text>
<text text-anchor="start" x="496" y="-298.9" style="font-family:Times New Roman;font-size:11.00;">starts_at :datetime</text>
<text text-anchor="start" x="496" y="-281.9" style="font-family:Times New Roman;font-size:11.00;">ends_at :datetime</text>
<text text-anchor="start" x="496" y="-264.9" style="font-family:Times New Roman;font-size:11.00;">location :string</text>
<text text-anchor="start" x="496" y="-247.9" style="font-family:Times New Roman;font-size:11.00;">description :text</text>
<text text-anchor="start" x="496" y="-230.9" style="font-family:Times New Roman;font-size:11.00;">published :boolean</text>
<text text-anchor="start" x="496" y="-213.9" style="font-family:Times New Roman;font-size:11.00;">is_address :boolean</text>
<text text-anchor="start" x="496" y="-196.9" style="font-family:Times New Roman;font-size:11.00;">created_at :datetime</text>
<text text-anchor="start" x="496" y="-179.9" style="font-family:Times New Roman;font-size:11.00;">updated_at :datetime</text>
</g>
<!-- User&#45;&gt;Event -->
<g id="edge8" class="edge"><title>User&#45;&gt;Event</title>
<path style="fill:none;stroke:black;" d="M422,-416C442,-397 461,-378 479,-358 480,-357 481,-355 483,-354"/>
<polygon style="fill:black;stroke:black;" points="422.071,-415.929 411.818,-419.818 418.536,-419.464 415,-423 415,-423 415,-423 418.536,-419.464 418.182,-426.182 422.071,-415.929 422.071,-415.929"/>
<ellipse style="fill:black;stroke:black;" cx="485.439" cy="-351.073" rx="4.00002" ry="4.00002"/>
</g>
<!-- ArticleRevision -->
<g id="node11" class="node"><title>ArticleRevision</title>
<polyline style="fill:none;stroke:black;" points="12,-0 120,-0 "/>
<path style="fill:none;stroke:black;" d="M120,-0C126,-0 132,-6 132,-12"/>
<polyline style="fill:none;stroke:black;" points="132,-12 132,-123 "/>
<path style="fill:none;stroke:black;" d="M132,-123C132,-129 126,-135 120,-135"/>
<polyline style="fill:none;stroke:black;" points="120,-135 12,-135 "/>
<path style="fill:none;stroke:black;" d="M12,-135C6,-135 0,-129 0,-123"/>
<polyline style="fill:none;stroke:black;" points="0,-123 0,-12 "/>
<path style="fill:none;stroke:black;" d="M0,-12C0,-6 6,-0 12,-0"/>
<text text-anchor="middle" x="66" y="-117.9" style="font-family:Times New Roman;font-size:11.00;">ArticleRevision</text>
<polyline style="fill:none;stroke:black;" points="0,-110 132,-110 "/>
<text text-anchor="start" x="8" y="-93.4" style="font-family:Times New Roman;font-size:11.00;">revision :integer</text>
<text text-anchor="start" x="8" y="-76.4" style="font-family:Times New Roman;font-size:11.00;">title :string</text>
<text text-anchor="start" x="8" y="-59.4" style="font-family:Times New Roman;font-size:11.00;">description :string</text>
<text text-anchor="start" x="8" y="-42.4" style="font-family:Times New Roman;font-size:11.00;">body :string</text>
<text text-anchor="start" x="8" y="-25.4" style="font-family:Times New Roman;font-size:11.00;">created_at :datetime</text>
<text text-anchor="start" x="8" y="-8.4" style="font-family:Times New Roman;font-size:11.00;">updated_at :datetime</text>
</g>
<!-- Article&#45;&gt;ArticleRevision -->
<g id="edge12" class="edge"><title>Article&#45;&gt;ArticleRevision</title>
<path style="fill:none;stroke:black;" d="M66,-187C66,-172 66,-158 66,-143"/>
<polygon style="fill:black;stroke:black;" points="66.0001,-187 61.5,-197 66,-192 66,-197 66,-197 66,-197 66,-192 70.5,-197 66.0001,-187 66.0001,-187"/>
<ellipse style="fill:black;stroke:black;" cx="66" cy="-139" rx="4" ry="4"/>
</g>
<!-- Role -->
<g id="node4" class="node"><title>Role</title>
<polyline style="fill:none;stroke:black;" points="247,-684 374,-684 "/>
<path style="fill:none;stroke:black;" d="M374,-684C380,-684 386,-690 386,-696"/>
<polyline style="fill:none;stroke:black;" points="386,-696 386,-807 "/>
<path style="fill:none;stroke:black;" d="M386,-807C386,-813 380,-819 374,-819"/>
<polyline style="fill:none;stroke:black;" points="374,-819 247,-819 "/>
<path style="fill:none;stroke:black;" d="M247,-819C241,-819 235,-813 235,-807"/>
<polyline style="fill:none;stroke:black;" points="235,-807 235,-696 "/>
<path style="fill:none;stroke:black;" d="M235,-696C235,-690 241,-684 247,-684"/>
<text text-anchor="middle" x="310" y="-801.9" style="font-family:Times New Roman;font-size:11.00;">Role</text>
<polyline style="fill:none;stroke:black;" points="235,-794 386,-794 "/>
<text text-anchor="start" x="242.5" y="-777.4" style="font-family:Times New Roman;font-size:11.00;">name :string</text>
<text text-anchor="start" x="242.5" y="-760.4" style="font-family:Times New Roman;font-size:11.00;">can_create :boolean</text>
<text text-anchor="start" x="242.5" y="-743.4" style="font-family:Times New Roman;font-size:11.00;">can_update :boolean</text>
<text text-anchor="start" x="242.5" y="-726.4" style="font-family:Times New Roman;font-size:11.00;">can_delete :boolean</text>
<text text-anchor="start" x="242.5" y="-709.4" style="font-family:Times New Roman;font-size:11.00;">can_publish :boolean</text>
<text text-anchor="start" x="242.5" y="-692.4" style="font-family:Times New Roman;font-size:11.00;">can_administer :boolean</text>
</g>
<!-- Role&#45;&gt;User -->
<g id="edge14" class="edge"><title>Role&#45;&gt;User</title>
<path style="fill:none;stroke:black;" d="M310,-674C310,-668 310,-662 310,-656"/>
<polygon style="fill:black;stroke:black;" points="310,-674 305.5,-684 310,-679 310,-684 310,-684 310,-684 310,-679 314.5,-684 310,-674 310,-674"/>
<ellipse style="fill:black;stroke:black;" cx="310" cy="-652" rx="4" ry="4"/>
</g>
<!-- Gallery&#45;&gt;Image -->
<g id="edge16" class="edge"><title>Gallery&#45;&gt;Image</title>
<path style="fill:none;stroke:black;" d="M230,-204C237,-177 245,-146 251,-120"/>
<polygon style="fill:black;stroke:black;" points="229.961,-204.194 223.587,-213.117 228.981,-209.097 228,-214 228,-214 228,-214 228.981,-209.097 232.413,-214.883 229.961,-204.194 229.961,-204.194"/>
<polygon style="fill:black;stroke:black;" points="251.039,-119.806 257.413,-110.883 252.019,-114.903 253,-110 253,-110 253,-110 252.019,-114.903 248.587,-109.117 251.039,-119.806 251.039,-119.806"/>
</g>
<!-- GalleriesImages -->
<g id="node8" class="node"><title>GalleriesImages</title>
<polyline style="fill:none;stroke:black;" points="415,-727 495,-727 "/>
<path style="fill:none;stroke:black;" d="M495,-727C501,-727 507,-733 507,-739"/>
<polyline style="fill:none;stroke:black;" points="507,-739 507,-764 "/>
<path style="fill:none;stroke:black;" d="M507,-764C507,-770 501,-776 495,-776"/>
<polyline style="fill:none;stroke:black;" points="495,-776 415,-776 "/>
<path style="fill:none;stroke:black;" d="M415,-776C409,-776 403,-770 403,-764"/>
<polyline style="fill:none;stroke:black;" points="403,-764 403,-739 "/>
<path style="fill:none;stroke:black;" d="M403,-739C403,-733 409,-727 415,-727"/>
<text text-anchor="middle" x="455" y="-758.9" style="font-family:Times New Roman;font-size:11.00;">GalleriesImages</text>
<polyline style="fill:none;stroke:black;" points="403,-751 507,-751 "/>
</g>
<!-- Setting -->
<g id="node9" class="node"><title>Setting</title>
<polyline style="fill:none;stroke:black;" points="537,-701 645,-701 "/>
<path style="fill:none;stroke:black;" d="M645,-701C651,-701 657,-707 657,-713"/>
<polyline style="fill:none;stroke:black;" points="657,-713 657,-790 "/>
<path style="fill:none;stroke:black;" d="M657,-790C657,-796 651,-802 645,-802"/>
<polyline style="fill:none;stroke:black;" points="645,-802 537,-802 "/>
<path style="fill:none;stroke:black;" d="M537,-802C531,-802 525,-796 525,-790"/>
<polyline style="fill:none;stroke:black;" points="525,-790 525,-713 "/>
<path style="fill:none;stroke:black;" d="M525,-713C525,-707 531,-701 537,-701"/>
<text text-anchor="middle" x="591" y="-784.9" style="font-family:Times New Roman;font-size:11.00;">Setting</text>
<polyline style="fill:none;stroke:black;" points="525,-777 657,-777 "/>
<text text-anchor="start" x="533" y="-760.4" style="font-family:Times New Roman;font-size:11.00;">option :string</text>
<text text-anchor="start" x="533" y="-743.4" style="font-family:Times New Roman;font-size:11.00;">value :text</text>
<text text-anchor="start" x="533" y="-726.4" style="font-family:Times New Roman;font-size:11.00;">created_at :datetime</text>
<text text-anchor="start" x="533" y="-709.4" style="font-family:Times New Roman;font-size:11.00;">updated_at :datetime</text>
</g>
<!-- Mailer -->
<g id="node10" class="node"><title>Mailer</title>
<polygon style="fill:none;stroke:black;" points="732,-496 732,-546 786,-546 786,-496 732,-496"/>
<text text-anchor="middle" x="759" y="-528.9" style="font-family:Times New Roman;font-size:11.00;">Mailer</text>
<polyline style="fill:none;stroke:black;" points="732,-521 786,-521 "/>
<text text-anchor="middle" x="759" y="-503.9" style="font-family:Times New Roman;font-size:11.00;"> </text>
</g>
<!-- ActionMailer::Base -->
<g id="node21" class="node"><title>ActionMailer::Base</title>
<ellipse style="fill:none;stroke:black;" cx="759" cy="-752" rx="84.0808" ry="18"/>
<text text-anchor="middle" x="759" y="-747.9" style="font-family:Times New Roman;font-size:11.00;">ActionMailer::Base</text>
</g>
<!-- ActionMailer::Base&#45;&gt;Mailer -->
<g id="edge18" class="edge"><title>ActionMailer::Base&#45;&gt;Mailer</title>
<path style="fill:none;stroke:black;" d="M759,-724C759,-678 759,-590 759,-546"/>
<polygon style="fill:none;stroke:black;" points="755.5,-724 759,-734 762.5,-724 755.5,-724"/>
</g>
</g>
</svg>
